<?xml version="1.0" encoding="UTF-8" standalone="no"?>
<svg
   xmlns:dc="http://purl.org/dc/elements/1.1/"
   xmlns:cc="http://creativecommons.org/ns#"
   xmlns:rdf="http://www.w3.org/1999/02/22-rdf-syntax-ns#"
   xmlns:svg="http://www.w3.org/2000/svg"
   xmlns="http://www.w3.org/2000/svg"
   style="fill:none;stroke:none;stroke-linecap:square;stroke-miterlimit:10"
   height="194.29398"
   width="324.61899"
   id="svg130"
   stroke-miterlimit="10"
   viewBox="0 0 324.61899 194.29398"
   version="1.1">
  <metadata
     id="metadata136">
    <rdf:RDF>
      <cc:Work
         rdf:about="">
        <dc:format>image/svg+xml</dc:format>
        <dc:type
           rdf:resource="http://purl.org/dc/dcmitype/StillImage" />
        <dc:title></dc:title>
      </cc:Work>
    </rdf:RDF>
  </metadata>
  <defs
     id="defs134">
    <defs
       id="defs80">
      <linearGradient
         id="p.1"
         gradientUnits="userSpaceOnUse"
         gradientTransform="scale(-12.277635)"
         spreadMethod="pad"
         x1="-50.621098"
         y1="-37.237553"
         x2="-50.621143"
         y2="-24.959919">
        <stop
           offset="0.0"
           stop-color="#cc4125"
           id="stop71" />
        <stop
           offset="0.32"
           stop-color="#ffd966"
           id="stop73" />
        <stop
           offset="0.58"
           stop-color="#93c47d"
           id="stop75" />
        <stop
           offset="1.0"
           stop-color="#ffd966"
           id="stop77" />
      </linearGradient>
    </defs>
  </defs>
  <clipPath
     id="p.0">
    <path
       style="clip-rule:nonzero"
       id="path2"
       d="M 0,0 H 1280 V 960 H 0 Z" />
  </clipPath>
  <path
     d="m -297.97238,-263.39496 h 1280 v 960 h -1280 z"
     id="path5"
     style="fill:#000000;fill-opacity:0;fill-rule:evenodd" />
  <g
     transform="translate(-297.97238,-263.39496)"
     id="g1639">
    <path
       style="fill:#efefef;fill-rule:evenodd"
       id="path51"
       d="M 298.47238,365.22495 H 574.72436 V 450.3588 H 298.47238 Z" />
    <path
       style="fill-rule:evenodd;stroke:#000000;stroke-width:1;stroke-linecap:butt;stroke-linejoin:round"
       id="path53"
       d="M 298.47238,365.22495 H 574.72436 V 450.3588 H 298.47238 Z" />
    <path
       style="fill:#434343;fill-rule:evenodd"
       id="path55"
       d="m 326.72083,365.22495 h 248.37793 v 42.55118 H 326.72083 Z" />
    <path
       style="fill-rule:evenodd;stroke:#000000;stroke-width:1;stroke-linecap:butt;stroke-linejoin:round"
       id="path57"
       d="m 326.72083,365.22495 h 248.37793 v 42.55118 H 326.72083 Z" />
    <path
       style="fill:#ffffff;fill-rule:nonzero"
       id="path59"
       d="m 399.31705,391.30054 v -9.54688 h 1.90625 l 2.25,6.76563 q 0.3125,0.9375 0.46875,1.40625 0.15625,-0.51563 0.5,-1.53125 l 2.28125,-6.64063 h 1.70312 v 9.54688 h -1.21875 v -7.98438 l -2.76562,7.98438 h -1.14063 l -2.76562,-8.125 v 8.125 z m 10.10242,0 3.65625,-9.54688 h 1.35937 l 3.90625,9.54688 h -1.4375 l -1.10937,-2.89063 h -3.98438 l -1.04687,2.89063 z m 2.75,-3.92188 h 3.23437 l -1,-2.64062 q -0.45312,-1.20313 -0.67187,-1.96875 -0.1875,0.90625 -0.51563,1.8125 z m 11.65539,0.1875 v -1.125 l 4.03125,-0.0156 v 3.54687 q -0.92187,0.75 -1.92187,1.125 -0.98438,0.35938 -2.03125,0.35938 -1.40625,0 -2.5625,-0.59375 -1.14063,-0.60938 -1.73438,-1.73438 -0.57812,-1.14062 -0.57812,-2.54687 0,-1.40625 0.57812,-2.60938 0.59375,-1.20312 1.6875,-1.78125 1.09375,-0.59375 2.51563,-0.59375 1.03125,0 1.85937,0.34375 0.84375,0.32813 1.3125,0.9375 0.48438,0.59375 0.73438,1.54688 l -1.14063,0.3125 q -0.21875,-0.71875 -0.53125,-1.14063 -0.3125,-0.42187 -0.90625,-0.67187 -0.59375,-0.25 -1.3125,-0.25 -0.875,0 -1.51562,0.26562 -0.625,0.26563 -1.01563,0.70313 -0.375,0.42187 -0.59375,0.9375 -0.35937,0.875 -0.35937,1.92187 0,1.26563 0.4375,2.125 0.4375,0.85938 1.26562,1.28125 0.84375,0.42188 1.79688,0.42188 0.8125,0 1.59375,-0.3125 0.78125,-0.32813 1.1875,-0.6875 v -1.76563 z m 5.88266,3.73438 v -9.54688 h 1.29688 l 5.01562,7.5 v -7.5 h 1.20313 v 9.54688 h -1.29688 l -5.01562,-7.5 v 7.5 z m 9.65641,0 v -9.54688 h 6.90625 v 1.125 h -5.64063 v 2.92188 h 5.28125 v 1.125 h -5.28125 v 3.25 h 5.85938 v 1.125 z m 11.29602,0 v -8.42188 h -3.14063 v -1.125 h 7.5625 v 1.125 h -3.15625 v 8.42188 z m 5.93823,0 v -9.54688 h 1.25 v 9.54688 z m 10.2811,-3.34375 1.26562,0.3125 q -0.39062,1.5625 -1.42187,2.375 -1.03125,0.8125 -2.53125,0.8125 -1.53125,0 -2.5,-0.625 -0.96875,-0.625 -1.48438,-1.8125 -0.5,-1.1875 -0.5,-2.5625 0,-1.48438 0.5625,-2.59375 0.57813,-1.10938 1.625,-1.6875 1.0625,-0.57813 2.32813,-0.57813 1.42187,0 2.39062,0.73438 0.98438,0.71875 1.375,2.04687 l -1.25,0.29688 q -0.32812,-1.04688 -0.96875,-1.51563 -0.625,-0.48437 -1.57812,-0.48437 -1.09375,0 -1.84375,0.53125 -0.73438,0.53125 -1.03125,1.42187 -0.29688,0.875 -0.29688,1.82813 0,1.21875 0.34375,2.125 0.35938,0.90625 1.10938,1.35937 0.75,0.4375 1.625,0.4375 1.0625,0 1.79687,-0.60937 0.73438,-0.60938 0.98438,-1.8125 z m 6.53128,3.34375 v -9.54688 h 3.28125 q 1.10937,0 1.70312,0.14063 0.8125,0.1875 1.39063,0.6875 0.76562,0.64062 1.14062,1.64062 0.375,0.98438 0.375,2.25 0,1.09375 -0.26562,1.9375 -0.25,0.82813 -0.65625,1.39063 -0.39063,0.54687 -0.85938,0.85937 -0.46875,0.3125 -1.14062,0.48438 -0.65625,0.15625 -1.53125,0.15625 z m 1.26562,-1.125 h 2.03125 q 0.9375,0 1.46875,-0.17188 0.54688,-0.1875 0.875,-0.5 0.4375,-0.45312 0.6875,-1.20312 0.25,-0.76563 0.25,-1.84375 0,-1.5 -0.5,-2.29688 -0.48437,-0.8125 -1.1875,-1.07812 -0.5,-0.20313 -1.625,-0.20313 h -2 z m 8.57828,1.125 v -9.54688 h 1.25 v 9.54688 z m 3.04672,-3.0625 1.20313,-0.10938 q 0.0781,0.71875 0.39062,1.1875 0.3125,0.45313 0.95313,0.73438 0.65625,0.28125 1.46875,0.28125 0.71875,0 1.26562,-0.21875 0.5625,-0.21875 0.82813,-0.57813 0.26562,-0.375 0.26562,-0.82812 0,-0.45313 -0.26562,-0.78125 -0.25,-0.32813 -0.84375,-0.5625 -0.39063,-0.15625 -1.70313,-0.46875 -1.3125,-0.3125 -1.84375,-0.59375 -0.67187,-0.35938 -1.01562,-0.89063 -0.32813,-0.53125 -0.32813,-1.1875 0,-0.71875 0.40625,-1.34375 0.40625,-0.625 1.1875,-0.95312 0.79688,-0.32813 1.76563,-0.32813 1.04687,0 1.85937,0.34375 0.8125,0.34375 1.25,1.01563 0.4375,0.65625 0.46875,1.48437 l -1.20312,0.0937 q -0.10938,-0.90625 -0.67188,-1.35937 -0.5625,-0.46875 -1.65625,-0.46875 -1.14062,0 -1.67187,0.42187 -0.51563,0.42188 -0.51563,1.01563 0,0.51562 0.35938,0.84375 0.375,0.32812 1.90625,0.6875 1.54687,0.34375 2.10937,0.59375 0.84375,0.39062 1.23438,0.98437 0.39062,0.57813 0.39062,1.35938 0,0.75 -0.4375,1.4375 -0.42187,0.67187 -1.25,1.04687 -0.8125,0.35938 -1.82812,0.35938 -1.29688,0 -2.17188,-0.375 -0.875,-0.375 -1.375,-1.125 -0.5,-0.76563 -0.53125,-1.71875 z m 9.26477,3.0625 v -9.54688 h 1.26563 v 4.73438 l 4.73437,-4.73438 h 1.71875 l -4,3.875 4.17188,5.67188 h -1.65625 l -3.40625,-4.82813 -1.5625,1.51563 v 3.3125 z" />
    <path
       style="fill:#999999;fill-rule:evenodd"
       id="path61"
       d="m 327.5178,263.89496 h 248.37796 v 42.55118 H 327.5178 Z" />
    <path
       style="fill-rule:evenodd;stroke:#000000;stroke-width:1;stroke-linecap:butt;stroke-linejoin:round"
       id="path63"
       d="m 327.5178,263.89496 h 248.37796 v 42.55118 H 327.5178 Z" />
    <path
       style="fill:#000000;fill-rule:nonzero"
       id="path65"
       d="m 406.3842,286.90805 1.20313,-0.10938 q 0.0781,0.71875 0.39062,1.1875 0.3125,0.45313 0.95313,0.73438 0.65625,0.28125 1.46875,0.28125 0.71875,0 1.26562,-0.21875 0.5625,-0.21875 0.82813,-0.57813 0.26562,-0.375 0.26562,-0.82812 0,-0.45313 -0.26562,-0.78125 -0.25,-0.32813 -0.84375,-0.5625 -0.39063,-0.15625 -1.70313,-0.46875 -1.3125,-0.3125 -1.84375,-0.59375 -0.67187,-0.35938 -1.01562,-0.89063 -0.32813,-0.53125 -0.32813,-1.1875 0,-0.71875 0.40625,-1.34375 0.40625,-0.625 1.1875,-0.95312 0.79688,-0.32813 1.76563,-0.32813 1.04687,0 1.85937,0.34375 0.8125,0.34375 1.25,1.01563 0.4375,0.65625 0.46875,1.48437 l -1.20312,0.0937 q -0.10938,-0.90625 -0.67188,-1.35937 -0.5625,-0.46875 -1.65625,-0.46875 -1.14062,0 -1.67187,0.42187 -0.51563,0.42188 -0.51563,1.01563 0,0.51562 0.35938,0.84375 0.375,0.32812 1.90625,0.6875 1.54687,0.34375 2.10937,0.59375 0.84375,0.39062 1.23438,0.98437 0.39062,0.57813 0.39062,1.35938 0,0.75 -0.4375,1.4375 -0.42187,0.67187 -1.25,1.04687 -0.8125,0.35938 -1.82812,0.35938 -1.29688,0 -2.17188,-0.375 -0.875,-0.375 -1.375,-1.125 -0.5,-0.76563 -0.53125,-1.71875 z m 9.3429,3.0625 v -9.54688 h 6.90625 v 1.125 h -5.64063 v 2.92188 h 5.28125 v 1.125 h -5.28125 v 3.25 h 5.85938 v 1.125 z m 8.85849,0 v -9.54688 h 1.29687 l 5.01563,7.5 v -7.5 h 1.20312 v 9.54688 h -1.29687 l -5.01563,-7.5 v 7.5 z m 9.20327,-3.0625 1.20313,-0.10938 q 0.0781,0.71875 0.39062,1.1875 0.3125,0.45313 0.95313,0.73438 0.65625,0.28125 1.46875,0.28125 0.71875,0 1.26562,-0.21875 0.5625,-0.21875 0.82813,-0.57813 0.26562,-0.375 0.26562,-0.82812 0,-0.45313 -0.26562,-0.78125 -0.25,-0.32813 -0.84375,-0.5625 -0.39063,-0.15625 -1.70313,-0.46875 -1.3125,-0.3125 -1.84375,-0.59375 -0.67187,-0.35938 -1.01562,-0.89063 -0.32813,-0.53125 -0.32813,-1.1875 0,-0.71875 0.40625,-1.34375 0.40625,-0.625 1.1875,-0.95312 0.79688,-0.32813 1.76563,-0.32813 1.04687,0 1.85937,0.34375 0.8125,0.34375 1.25,1.01563 0.4375,0.65625 0.46875,1.48437 l -1.20312,0.0937 q -0.10938,-0.90625 -0.67188,-1.35937 -0.5625,-0.46875 -1.65625,-0.46875 -1.14062,0 -1.67187,0.42187 -0.51563,0.42188 -0.51563,1.01563 0,0.51562 0.35938,0.84375 0.375,0.32812 1.90625,0.6875 1.54687,0.34375 2.10937,0.59375 0.84375,0.39062 1.23438,0.98437 0.39062,0.57813 0.39062,1.35938 0,0.75 -0.4375,1.4375 -0.42187,0.67187 -1.25,1.04687 -0.8125,0.35938 -1.82812,0.35938 -1.29688,0 -2.17188,-0.375 -0.875,-0.375 -1.375,-1.125 -0.5,-0.76563 -0.53125,-1.71875 z m 8.93665,-1.57813 q 0,-2.375 1.28125,-3.71875 1.28125,-1.34375 3.29687,-1.34375 1.3125,0 2.375,0.625 1.0625,0.625 1.60938,1.76563 0.5625,1.125 0.5625,2.5625 0,1.4375 -0.59375,2.59375 -0.57813,1.14062 -1.65625,1.73437 -1.0625,0.57813 -2.3125,0.57813 -1.34375,0 -2.40625,-0.64063 -1.0625,-0.65625 -1.60938,-1.78125 -0.54687,-1.125 -0.54687,-2.375 z m 1.3125,0.0156 q 0,1.71875 0.92187,2.71875 0.92188,0.98437 2.32813,0.98437 1.42187,0 2.34375,-1 0.92187,-1 0.92187,-2.84375 0,-1.15625 -0.40625,-2.03125 -0.39062,-0.875 -1.15625,-1.34375 -0.75,-0.48437 -1.6875,-0.48437 -1.34375,0 -2.3125,0.92187 -0.95312,0.92188 -0.95312,3.07813 z m 9.46078,4.625 v -9.54688 h 4.23438 q 1.26562,0 1.92187,0.26563 0.67188,0.25 1.0625,0.90625 0.40625,0.65625 0.40625,1.4375 0,1.01562 -0.65625,1.71875 -0.65625,0.6875 -2.03125,0.875 0.5,0.25 0.76563,0.48437 0.54687,0.5 1.04687,1.26563 l 1.65625,2.59375 h -1.57812 l -1.26563,-1.98438 q -0.5625,-0.85937 -0.92187,-1.3125 -0.34375,-0.45312 -0.64063,-0.64062 -0.28125,-0.1875 -0.5625,-0.25 -0.21875,-0.0469 -0.70312,-0.0469 h -1.46875 v 4.23438 z m 1.26563,-5.32813 h 2.71875 q 0.85937,0 1.34375,-0.17187 0.48437,-0.1875 0.73437,-0.57813 0.26563,-0.39062 0.26563,-0.85937 0,-0.67188 -0.5,-1.10938 -0.48438,-0.4375 -1.54688,-0.4375 h -3.01562 z m 18.84378,1.98438 1.26562,0.3125 q -0.39062,1.5625 -1.42187,2.375 -1.03125,0.8125 -2.53125,0.8125 -1.53125,0 -2.5,-0.625 -0.96875,-0.625 -1.48438,-1.8125 -0.5,-1.1875 -0.5,-2.5625 0,-1.48438 0.5625,-2.59375 0.57813,-1.10938 1.625,-1.6875 1.0625,-0.57813 2.32813,-0.57813 1.42187,0 2.39062,0.73438 0.98438,0.71875 1.375,2.04687 l -1.25,0.29688 q -0.32812,-1.04688 -0.96875,-1.51563 -0.625,-0.48437 -1.57812,-0.48437 -1.09375,0 -1.84375,0.53125 -0.73438,0.53125 -1.03125,1.42187 -0.29688,0.875 -0.29688,1.82813 0,1.21875 0.34375,2.125 0.35938,0.90625 1.10938,1.35937 0.75,0.4375 1.625,0.4375 1.0625,0 1.79687,-0.60937 0.73438,-0.60938 0.98438,-1.8125 z m 2.85953,3.34375 v -9.54688 h 1.26562 v 3.92188 h 4.95313 v -3.92188 h 1.26562 v 9.54688 h -1.26562 v -4.5 h -4.95313 v 4.5 z m 9.81265,0 v -9.54688 h 1.25 v 9.54688 z m 3.48422,0 v -9.54688 h 3.59375 q 0.95313,0 1.45313,0.0937 0.70312,0.125 1.17187,0.45313 0.48438,0.32812 0.76563,0.92187 0.29687,0.59375 0.29687,1.29688 0,1.21875 -0.78125,2.0625 -0.76562,0.84375 -2.79687,0.84375 h -2.4375 v 3.875 z m 1.26563,-5 h 2.45312 q 1.23438,0 1.75,-0.45313 0.51563,-0.46875 0.51563,-1.28125 0,-0.60937 -0.3125,-1.03125 -0.29688,-0.42187 -0.79688,-0.5625 -0.3125,-0.0937 -1.17187,-0.0937 h -2.4375 z" />
    <path
       style="fill:#b7b7b7;fill-rule:evenodd"
       id="path67"
       d="m 354.35956,294.78583 h 66.61417 v 11.1496 h -66.61417 z" />
    <path
       style="fill:#b7b7b7;fill-rule:evenodd"
       id="path69"
       d="m 482.40488,294.78583 h 66.61417 v 11.1496 h -66.61417 z" />
    <path
       style="fill:url(#p.1);fill-rule:evenodd"
       id="path82"
       d="M 621.5074,457.18893 H 575.71211 V 306.44876 h 45.79529 z" />
    <path
       style="fill-rule:evenodd;stroke:#000000;stroke-width:1;stroke-linecap:butt;stroke-linejoin:round"
       id="path84"
       d="M 621.5074,457.18893 H 575.71211 V 306.44876 h 45.79529 z" />
    <path
       style="fill:#000000;fill-opacity:0;fill-rule:evenodd"
       id="path86"
       d="M 298.87482,364.04022 H 622.59137" />
    <path
       style="fill-rule:evenodd;stroke:#000000;stroke-width:3;stroke-linecap:butt;stroke-linejoin:round;stroke-dasharray:12, 9"
       id="path88"
       d="M 298.87482,364.04022 H 622.59137" />
  </g>
  <path
     d="m -48.52356,-145.19023 h 368.53543 v 45.82677 H -48.52356 Z"
     id="path112"
     style="fill:#000000;fill-opacity:0;fill-rule:evenodd" />
  <path
     d="M -46.48668,-86.16399 H 365.70228 V 9.93051 H -46.48668 Z"
     id="path116"
     style="fill:#000000;fill-opacity:0;fill-rule:evenodd" />
</svg>
